<svg xmlns="http://www.w3.org/2000/svg" width="128" height="128" viewBox="0 0 128 128">
  <title>Tools</title>
  <path d="M114,15.25H14A9.761,9.761,0,0,0,4.25,25v77A10.762,10.762,0,0,0,15,112.75h98A10.762,10.762,0,0,0,123.75,102V25A9.761,9.761,0,0,0,114,15.25ZM120.25,25V36.683H52.888L61.37,18.75H114A6.257,6.257,0,0,1,120.25,25ZM14,18.75H57.5L49.016,36.683H7.75V25A6.257,6.257,0,0,1,14,18.75Zm76.1,90.5-22.287-22.3a1.75,1.75,0,0,0-2.476,2.475L85.146,109.25H76.275L58.627,91.593a1.762,1.762,0,0,0-1.908-.571A18.762,18.762,0,0,1,33.272,68.268L46.263,81.257a1.753,1.753,0,0,0,1.18.512c.368.021,3.7-.014,8.193-4.51s4.516-7.825,4.5-8.192a1.747,1.747,0,0,0-.512-1.174L46.637,54.9a18.751,18.751,0,0,1,22.745,23.49,1.743,1.743,0,0,0,.563,1.838l29.02,29.02Zm22.905,0h-9.085l-30.9-30.9a22.248,22.248,0,0,0-30.281-25.8,1.749,1.749,0,0,0-.554,2.848L56.524,69.739a12.036,12.036,0,0,1-3.362,5.043,12.231,12.231,0,0,1-5.051,3.374L33.767,63.813a1.75,1.75,0,0,0-2.849.554A22.258,22.258,0,0,0,56.729,94.645l14.6,14.605H15A7.258,7.258,0,0,1,7.75,102V40.183h112.5V102A7.258,7.258,0,0,1,113,109.25Z"/>
  <path d="M21.57,33.466a5.75,5.75,0,1,0-5.75-5.75A5.756,5.756,0,0,0,21.57,33.466Zm0-8a2.25,2.25,0,1,1-2.25,2.25A2.253,2.253,0,0,1,21.57,25.466Z"/>
  <path d="M37.626,33.466a5.75,5.75,0,1,0-5.75-5.75A5.756,5.756,0,0,0,37.626,33.466Zm0-8a2.25,2.25,0,1,1-2.25,2.25A2.253,2.253,0,0,1,37.626,25.466Z"/>
  <path d="M67.522,29.466h44.745a1.75,1.75,0,0,0,0-3.5H67.522a1.75,1.75,0,0,0,0,3.5Z"/>
</svg>
